<svg width="24" height="22" viewBox="0 0 24 22" fill="none" xmlns="http://www.w3.org/2000/svg">
<path d="M23.334 9.15199C23.4209 9.23691 23.49 9.3384 23.5371 9.45045C23.5842 9.56251 23.6083 9.68286 23.6082 9.80441C23.608 9.92596 23.5834 10.0462 23.536 10.1581C23.4886 10.2701 23.4192 10.3713 23.332 10.456L12.698 20.82C12.5112 21.002 12.2608 21.1039 12 21.1039C11.7392 21.1039 11.4887 21.002 11.302 20.82L0.66797 10.456C0.580883 10.3712 0.511665 10.2698 0.464403 10.1578C0.417141 10.0459 0.392791 9.92553 0.392791 9.80399C0.392791 9.68244 0.417141 9.56212 0.464403 9.45014C0.511665 9.33816 0.580883 9.23678 0.66797 9.15199C0.846567 8.97754 1.08632 8.87988 1.33597 8.87988C1.58563 8.87988 1.82537 8.97754 2.00397 9.15199L12 18.898L22 9.15199C22.1785 8.97814 22.4178 8.88086 22.667 8.88086C22.9161 8.88086 23.1555 8.97814 23.334 9.15199ZM23.334 1.15199C23.4209 1.23691 23.49 1.3384 23.5371 1.45045C23.5842 1.56251 23.6083 1.68286 23.6082 1.80441C23.608 1.92596 23.5834 2.04624 23.536 2.15815C23.4886 2.27006 23.4192 2.37133 23.332 2.45599L12.698 12.82C12.5112 13.002 12.2608 13.1039 12 13.1039C11.7392 13.1039 11.4887 13.002 11.302 12.82L0.667971 2.45599C0.580883 2.37119 0.511665 2.26982 0.464403 2.15783C0.417141 2.04585 0.392792 1.92553 0.392792 1.80399C0.392792 1.68244 0.417141 1.56212 0.464403 1.45014C0.511665 1.33816 0.580883 1.23678 0.667971 1.15199C0.846567 0.977542 1.08632 0.879882 1.33597 0.879882C1.58563 0.879882 1.82537 0.977542 2.00397 1.15199L12 10.898L22 1.15199C22.1785 0.978142 22.4178 0.880858 22.667 0.880858C22.9161 0.880858 23.1555 0.978142 23.334 1.15199Z" fill="#548CDC"/>
</svg>
