<svg width="46" height="55" viewBox="0 0 46 55" fill="none" xmlns="http://www.w3.org/2000/svg">
<path d="M13.1999 0.400025C11.5025 0.400025 9.87465 1.07431 8.67442 2.27454C7.47419 3.47477 6.7999 5.10264 6.7999 6.80002V23.2032C7.8239 22.9376 8.8959 22.8 9.9999 22.8V6.80002C9.9999 5.95133 10.337 5.1374 10.9372 4.53728C11.5373 3.93717 12.3512 3.60002 13.1999 3.60002H25.9999V14.8C25.9999 16.0731 26.5056 17.294 27.4058 18.1941C28.306 19.0943 29.5269 19.6 30.7999 19.6H41.9999V45.2C41.9999 46.0487 41.6628 46.8626 41.0626 47.4628C40.4625 48.0629 39.6486 48.4 38.7999 48.4H19.5999V51.6H38.7999C40.4973 51.6 42.1252 50.9257 43.3254 49.7255C44.5256 48.5253 45.1999 46.8974 45.1999 45.2V17.7216C45.1988 16.449 44.6923 15.2289 43.7919 14.3296L31.2671 1.80162C30.3667 0.90354 29.1468 0.399447 27.8751 0.400025H13.1999ZM41.3375 16.4H30.7999C30.3756 16.4 29.9686 16.2315 29.6685 15.9314C29.3685 15.6313 29.1999 15.2244 29.1999 14.8V4.26242L41.3375 16.4ZM19.5999 35.6C19.5999 38.1461 18.5885 40.5879 16.7881 42.3882C14.9878 44.1886 12.546 45.2 9.9999 45.2C7.45382 45.2 5.01203 44.1886 3.21168 42.3882C1.41133 40.5879 0.399902 38.1461 0.399902 35.6C0.399902 33.0539 1.41133 30.6121 3.21168 28.8118C5.01203 27.0114 7.45382 26 9.9999 26C12.546 26 14.9878 27.0114 16.7881 28.8118C18.5885 30.6121 19.5999 33.0539 19.5999 35.6ZM16.3999 46.6848C14.4551 47.8109 12.2472 48.4026 9.9999 48.4C7.75294 48.4036 5.54498 47.813 3.5999 46.688V54.0032C3.59976 54.1447 3.63712 54.2836 3.70817 54.4059C3.77922 54.5282 3.88143 54.6295 4.00438 54.6994C4.12732 54.7693 4.26661 54.8054 4.40805 54.804C4.54948 54.8026 4.68801 54.7636 4.8095 54.6912L9.9999 51.5936L15.1903 54.6848C15.3116 54.7571 15.4498 54.796 15.591 54.7976C15.7321 54.7992 15.8712 54.7634 15.994 54.6938C16.1169 54.6243 16.2191 54.5234 16.2904 54.4016C16.3617 54.2797 16.3995 54.1412 16.3999 54V46.6848Z" fill="#A99067"/>
</svg>
