<svg width="52" height="52" viewBox="0 0 52 52" fill="none" xmlns="http://www.w3.org/2000/svg">
<path d="M23.1107 5.77783C19.6825 5.77783 16.3313 6.79441 13.4808 8.69903C10.6303 10.6036 8.40869 13.3107 7.09677 16.478C5.78485 19.6452 5.4416 23.1304 6.11041 26.4927C6.77922 29.8551 8.43006 32.9436 10.8542 35.3677C13.2783 37.7918 16.3668 39.4426 19.7291 40.1114C23.0915 40.7803 26.5766 40.437 29.7439 39.1251C32.9111 37.8132 35.6182 35.5915 37.5228 32.7411C39.4274 29.8906 40.444 26.5394 40.444 23.1112C40.444 18.5141 38.6178 14.1053 35.3672 10.8546C32.1166 7.60402 27.7078 5.77783 23.1107 5.77783ZM23.1107 37.4256C20.2483 37.4255 17.4505 36.575 15.0724 34.982C12.6943 33.389 10.8431 31.1253 9.75377 28.4784C8.66443 25.8314 8.38608 22.9205 8.95404 20.115C9.522 17.3096 10.9107 14.7362 12.9438 12.7213C14.9769 10.7065 17.5628 9.34117 20.3732 8.7986C23.1837 8.25602 26.092 8.56068 28.729 9.67391C31.366 10.7871 33.6128 12.6587 35.1842 15.0512C36.7557 17.4436 37.5809 20.2489 37.5551 23.1112C37.5209 26.9195 35.9839 30.5602 33.2788 33.241C30.5736 35.9218 26.9192 37.4258 23.1107 37.4256Z" fill="white"/>
<path d="M45.8037 42.8855L38.3359 35.4177C37.7205 36.1791 37.0494 36.8936 36.3281 37.5555L43.767 44.9944C44.0433 45.231 44.3988 45.3547 44.7623 45.3406C45.1258 45.3266 45.4707 45.1759 45.7279 44.9186C45.9852 44.6614 46.1359 44.3166 46.1499 43.953C46.164 43.5895 46.0403 43.234 45.8037 42.9577V42.8855Z" fill="white"/>
<path d="M30.3332 21.6667H24.5554V15.8889C24.5554 15.5058 24.4033 15.1384 24.1324 14.8675C23.8615 14.5966 23.4941 14.4445 23.111 14.4445C22.7279 14.4445 22.3605 14.5966 22.0896 14.8675C21.8187 15.1384 21.6666 15.5058 21.6666 15.8889V21.6667H15.8888C15.5057 21.6667 15.1383 21.8189 14.8674 22.0897C14.5965 22.3606 14.4443 22.728 14.4443 23.1111C14.4443 23.4942 14.5965 23.8616 14.8674 24.1325C15.1383 24.4034 15.5057 24.5556 15.8888 24.5556H21.6666V30.3333C21.6666 30.7164 21.8187 31.0838 22.0896 31.3547C22.3605 31.6256 22.7279 31.7778 23.111 31.7778C23.4941 31.7778 23.8615 31.6256 24.1324 31.3547C24.4033 31.0838 24.5554 30.7164 24.5554 30.3333V24.5556H30.3332C30.7163 24.5556 31.0837 24.4034 31.3546 24.1325C31.6255 23.8616 31.7777 23.4942 31.7777 23.1111C31.7777 22.728 31.6255 22.3606 31.3546 22.0897C31.0837 21.8189 30.7163 21.6667 30.3332 21.6667Z" fill="white"/>
</svg>
