<svg width="44" height="60" viewBox="0 0 44 60" fill="none" xmlns="http://www.w3.org/2000/svg">
<path d="M43.5 22C43.5014 18.3671 42.5822 14.793 40.8281 11.6115C39.0741 8.42998 36.5425 5.74484 33.4697 3.80675C30.3968 1.86866 26.883 0.740825 23.2562 0.528556C19.6294 0.316287 16.008 1.0265 12.7301 2.59289C9.45214 4.15928 6.62457 6.53076 4.51138 9.48591C2.39818 12.4411 1.06828 15.8835 0.645848 19.4918C0.223412 23.1002 0.722215 26.7567 2.09569 30.1201C3.46916 33.4834 5.6725 36.4439 8.5 38.725V58C8.50127 58.254 8.56596 58.5037 8.6882 58.7264C8.81045 58.949 8.98637 59.1376 9.20001 59.275C9.42022 59.4092 9.67044 59.4864 9.928 59.4995C10.1856 59.5126 10.4423 59.4612 10.675 59.35L22 53.675L33.325 59.35C33.5369 59.4471 33.7669 59.4983 34 59.5C34.2822 59.4992 34.5588 59.4214 34.8 59.275C35.0136 59.1376 35.1896 58.949 35.3118 58.7264C35.434 58.5037 35.4987 58.254 35.5 58V38.725C37.9981 36.7119 40.0134 34.1646 41.3978 31.2703C42.7823 28.376 43.5006 25.2084 43.5 22ZM3.5 22C3.5 18.3411 4.58501 14.7643 6.61782 11.722C8.65062 8.67967 11.5399 6.30847 14.9204 4.90825C18.3008 3.50803 22.0205 3.14167 25.6092 3.8555C29.1978 4.56932 32.4942 6.33128 35.0815 8.91855C37.6687 11.5058 39.4307 14.8022 40.1445 18.3909C40.8584 21.9795 40.492 25.6992 39.0918 29.0797C37.6916 32.4601 35.3204 35.3494 32.2781 37.3822C29.2357 39.415 25.659 40.5 22 40.5C17.0955 40.4934 12.3938 38.5422 8.92584 35.0742C5.45785 31.6062 3.50662 26.9045 3.5 22ZM32.5 55.575L22.675 50.65C22.4636 50.5516 22.2332 50.5007 22 50.5007C21.7668 50.5007 21.5364 50.5516 21.325 50.65L11.5 55.575V40.75C14.706 42.5525 18.322 43.4994 22 43.4994C25.678 43.4994 29.294 42.5525 32.5 40.75V55.575ZM22 35.5C24.6701 35.5 27.2801 34.7083 29.5002 33.2249C31.7203 31.7415 33.4506 29.6331 34.4724 27.1663C35.4942 24.6994 35.7615 21.985 35.2406 19.3663C34.7197 16.7476 33.434 14.3421 31.5459 12.4541C29.6579 10.5661 27.2525 9.28032 24.6337 8.75942C22.015 8.23852 19.3006 8.50587 16.8338 9.52765C14.367 10.5494 12.2586 12.2798 10.7752 14.4998C9.29177 16.7199 8.5 19.33 8.5 22C8.5 25.5804 9.92232 29.0142 12.4541 31.546C14.9858 34.0777 18.4196 35.5 22 35.5ZM22 11.5C24.0767 11.5 26.1068 12.1158 27.8335 13.2696C29.5602 14.4233 30.906 16.0632 31.7007 17.9818C32.4955 19.9005 32.7034 22.0117 32.2982 24.0485C31.8931 26.0853 30.8931 27.9562 29.4246 29.4246C27.9562 30.8931 26.0853 31.8931 24.0485 32.2983C22.0116 32.7034 19.9005 32.4955 17.9818 31.7008C16.0632 30.906 14.4233 29.5602 13.2696 27.8335C12.1158 26.1068 11.5 24.0767 11.5 22C11.5 19.2153 12.6063 16.5445 14.5754 14.5754C16.5445 12.6063 19.2152 11.5 22 11.5Z" fill="#A99067"/>
</svg>
