<svg width="55" height="49" viewBox="0 0 55 49" fill="none" xmlns="http://www.w3.org/2000/svg">
<path d="M0.400024 5.60005C0.400024 4.32701 0.905737 3.10611 1.80591 2.20594C2.70609 1.30576 3.92699 0.800049 5.20002 0.800049H46.8C48.0731 0.800049 49.294 1.30576 50.1941 2.20594C51.0943 3.10611 51.6 4.32701 51.6 5.60005V16.4992C50.5915 16.0635 49.4978 15.8601 48.4 15.904V5.60005C48.4 5.1757 48.2315 4.76874 47.9314 4.46868C47.6313 4.16862 47.2244 4.00005 46.8 4.00005H5.20002C4.77568 4.00005 4.36871 4.16862 4.06865 4.46868C3.7686 4.76874 3.60002 5.1757 3.60002 5.60005V34.4001C3.60002 34.8244 3.7686 35.2314 4.06865 35.5314C4.36871 35.8315 4.77568 36 5.20002 36H13.2V31.2C13.2 29.927 13.7057 28.7061 14.6059 27.8059C15.5061 26.9058 16.727 26.4 18 26.4H34C35.2731 26.4 36.494 26.9058 37.3941 27.8059C38.2943 28.7061 38.8 29.927 38.8 31.2V34.6369C37.4848 34.6785 36.4384 35.0849 35.6 35.6512V31.2C35.6 30.7757 35.4315 30.3687 35.1314 30.0687C34.8313 29.7686 34.4244 29.6 34 29.6H18C17.5757 29.6 17.1687 29.7686 16.8687 30.0687C16.5686 30.3687 16.4 30.7757 16.4 31.2V36H35.1296C34.1216 36.8192 33.4496 37.8433 32.9536 38.5921C32.8226 38.7984 32.686 39.0011 32.544 39.2001H5.20002C3.92699 39.2001 2.70609 38.6943 1.80591 37.7942C0.905737 36.894 0.400024 35.6731 0.400024 34.4001V5.60005ZM26 23.2C28.1218 23.2 30.1566 22.3572 31.6569 20.8569C33.1572 19.3566 34 17.3218 34 15.2C34 13.0783 33.1572 11.0435 31.6569 9.54319C30.1566 8.0429 28.1218 7.20005 26 7.20005C23.8783 7.20005 21.8435 8.0429 20.3432 9.54319C18.8429 11.0435 18 13.0783 18 15.2C18 17.3218 18.8429 19.3566 20.3432 20.8569C21.8435 22.3572 23.8783 23.2 26 23.2ZM26 20C24.727 20 23.5061 19.4943 22.6059 18.5942C21.7057 17.694 21.2 16.4731 21.2 15.2C21.2 13.927 21.7057 12.7061 22.6059 11.8059C23.5061 10.9058 24.727 10.4 26 10.4C27.2731 10.4 28.494 10.9058 29.3941 11.8059C30.2943 12.7061 30.8 13.927 30.8 15.2C30.8 16.4731 30.2943 17.694 29.3941 18.5942C28.494 19.4943 27.2731 20 26 20ZM44.672 24.048L45.9488 21.0368C46.5472 19.6224 47.9808 18.8545 49.3888 19.1488L49.6896 19.2257L51.2896 19.7376C52.8768 20.2465 54.0896 21.6033 54.4832 23.3089C55.4144 27.3633 54.2976 32.3008 51.1264 38.1185C47.9616 43.9296 44.496 47.4208 40.7232 48.5984C39.2576 49.056 37.6832 48.7265 36.4992 47.7313L36.1888 47.4432L34.9728 46.224C34.462 45.6981 34.132 45.0231 34.0307 44.297C33.9294 43.5708 34.0622 42.8313 34.4096 42.1856L34.5888 41.8912L36.4192 39.2032C36.752 38.6958 37.2294 38.2999 37.7895 38.0666C38.3497 37.8332 38.967 37.7733 39.5616 37.8945L39.8816 37.9809L43.264 39.1105C44.6112 38.0864 45.7376 36.8064 46.6368 35.2545C47.408 33.9264 47.9168 32.5824 48.1504 31.2192L48.2464 30.5344L45.4336 27.8624C44.9796 27.42 44.6569 26.8607 44.501 26.2462C44.3451 25.6318 44.3622 24.9862 44.5504 24.3808L44.6688 24.048H44.672Z" fill="#A99067"/>
</svg>
