<svg width="40" height="32" viewBox="0 0 40 32" fill="none" xmlns="http://www.w3.org/2000/svg">
<path d="M0.236 18.0648C0.398584 19.3082 1.00793 20.45 1.95037 21.2772C2.89282 22.1045 4.104 22.5606 5.358 22.5606C6.612 22.5606 7.82318 22.1045 8.76563 21.2772C9.70807 20.45 10.3174 19.3082 10.48 18.0648H0.236ZM28.1456 28.464C28.1459 28.5691 28.1255 28.6732 28.0855 28.7705C28.0456 28.8677 27.9869 28.9561 27.9127 29.0306C27.8386 29.1051 27.7504 29.1643 27.6534 29.2048C27.5564 29.2452 27.4523 29.2661 27.3472 29.2664H12.4224C11.984 29.2664 11.6224 28.9064 11.6224 28.464C11.6235 28.2526 11.7083 28.0503 11.8582 27.9014C12.0082 27.7525 12.2111 27.6691 12.4224 27.6696H27.3464C27.788 27.6696 28.1456 28.0248 28.1456 28.464ZM11.7096 29.6752H28.0592V31.9848H11.7096V29.6752ZM29.52 18.0648C29.6815 19.309 30.2903 20.4519 31.2328 21.2802C32.1752 22.1084 33.3869 22.5653 34.6416 22.5656C35.8961 22.5656 37.1077 22.1087 38.0498 21.2804C38.992 20.452 39.6002 19.3089 39.7608 18.0648H29.52ZM39.4792 16.4576L35.2848 10.68H37.5272C38.0728 10.68 38.512 10.2328 38.512 9.67995C38.512 9.13195 38.072 8.68955 37.5272 8.68955H25.6488C25.2962 7.71828 24.694 6.85703 23.9027 6.19247C23.1115 5.52791 22.1592 5.0835 21.1416 4.90395V1.78635C21.1416 1.23195 20.6968 0.789554 20.1456 0.789554L20.0528 0.799954L19.96 0.789554C19.8291 0.789236 19.6995 0.814819 19.5785 0.86483C19.4576 0.914841 19.3477 0.988291 19.2553 1.08095C19.1629 1.1736 19.0897 1.28363 19.04 1.4047C18.9902 1.52577 18.965 1.65548 18.9656 1.78635V4.90235C17.9482 5.08177 16.996 5.52616 16.205 6.19076C15.414 6.85535 14.8121 7.71667 14.46 8.68795H2.5792C2.0376 8.68795 1.596 9.13035 1.596 9.67835C1.596 10.232 2.0376 10.6784 2.5792 10.6784H4.7192L0.524 16.456H0V17.5232H10.7184V16.456H10.192L5.9984 10.68H15.7336C15.7336 10.4544 15.7584 10.2328 15.792 10.0208C15.8264 9.92075 15.8496 9.81915 15.8496 9.71435C16.0299 8.95431 16.4161 8.25862 16.9658 7.7036C17.5154 7.14857 18.2073 6.75566 18.9656 6.56795V17.5256H18.924C18.8384 21.6472 16.8776 25.2416 13.9688 27.2616H26.14C23.2304 25.2416 21.2712 21.6472 21.1808 17.5256H21.1424V6.56795C21.9005 6.7557 22.5923 7.14865 23.1419 7.70368C23.6914 8.25871 24.0774 8.95437 24.2576 9.71435C24.2608 9.81915 24.2824 9.92075 24.3176 10.0208C24.3496 10.2336 24.3696 10.4544 24.3696 10.68H34.0032L29.808 16.4576H29.2848V17.5248H40V16.4576H39.4792V16.4576ZM4.932 16.4576H1.584L4.932 11.8456V16.4576ZM5.7888 16.4576V11.8456L9.1368 16.4576H5.7888V16.4576ZM34.2144 16.4576H30.8648L34.2144 11.8456V16.4576ZM35.0672 16.4576V11.8456L38.4192 16.4576H35.0672ZM6.3528 7.29915C6.34546 7.5579 6.23751 7.80358 6.0519 7.984C5.86629 8.16442 5.61765 8.26535 5.3588 8.26535C5.09995 8.26535 4.85131 8.16442 4.6657 7.984C4.48009 7.80358 4.37214 7.5579 4.3648 7.29915C4.3648 6.75035 4.8112 6.30235 5.3608 6.30235C5.908 6.30155 6.3528 6.75035 6.3528 7.29915ZM35.636 7.24635C35.636 7.79915 35.1912 8.23755 34.6424 8.23755C34.5119 8.2384 34.3825 8.21336 34.2617 8.16388C34.1409 8.11439 34.0312 8.04145 33.9388 7.94927C33.8464 7.85709 33.7732 7.74751 33.7234 7.62685C33.6736 7.5062 33.6483 7.37687 33.6488 7.24635C33.6434 7.11252 33.6651 6.97898 33.7127 6.85374C33.7602 6.72851 33.8325 6.61416 33.9253 6.51757C34.0181 6.42098 34.1294 6.34413 34.2527 6.29163C34.3759 6.23913 34.5085 6.21207 34.6424 6.21207C34.7763 6.21207 34.9089 6.23913 35.0321 6.29163C35.1554 6.34413 35.2667 6.42098 35.3595 6.51757C35.4523 6.61416 35.5246 6.72851 35.5721 6.85374C35.6197 6.97898 35.6414 7.11252 35.636 7.24635V7.24635Z" fill="black"/>
</svg>
